<?xml version="1.0" encoding="UTF-8"?>
<svg xmlns="http://www.w3.org/2000/svg" xmlns:xlink="http://www.w3.org/1999/xlink" width="25px" height="25px" viewBox="0 0 25 25" version="1.1">
<g id="surface1">
<path style=" stroke:none;fill-rule:nonzero;fill:rgb(12.54902%,74.509804%,100%);fill-opacity:1;" d="M 19.609375 24.851562 C 19.585938 24.949219 19.488281 25 19.316406 25 L 16.046875 25 C 15.851562 25 15.683594 24.914062 15.535156 24.742188 L 10.136719 17.878906 L 8.632812 19.308594 L 8.632812 24.632812 C 8.632812 24.878906 8.511719 25 8.265625 25 L 5.734375 25 C 5.488281 25 5.367188 24.878906 5.367188 24.632812 L 5.367188 0.367188 C 5.367188 0.125 5.488281 0 5.734375 0 L 8.265625 0 C 8.511719 0 8.632812 0.125 8.632812 0.367188 L 8.632812 15.308594 L 15.09375 8.773438 C 15.265625 8.601562 15.4375 8.515625 15.609375 8.515625 L 18.988281 8.515625 C 19.132812 8.515625 19.230469 8.578125 19.28125 8.699219 C 19.328125 8.847656 19.316406 8.957031 19.242188 9.03125 L 12.414062 15.636719 L 19.535156 24.484375 C 19.632812 24.582031 19.660156 24.707031 19.609375 24.851562 "/>
</g>
</svg>
