<?xml version="1.0" encoding="UTF-8"?>
<svg xmlns="http://www.w3.org/2000/svg" xmlns:xlink="http://www.w3.org/1999/xlink" width="25px" height="25px" viewBox="0 0 25 25" version="1.1">
<g id="surface1">
<path style=" stroke:none;fill-rule:nonzero;fill:rgb(100%,100%,100%);fill-opacity:1;" d="M 12.585938 0.226562 C 6.078125 0.226562 0.800781 5.503906 0.800781 12.011719 C 0.800781 18.519531 6.078125 23.796875 12.585938 23.796875 C 19.035156 23.792969 24.285156 18.609375 24.367188 12.160156 L 24.371094 12.011719 L 24.367188 11.859375 C 24.285156 5.410156 19.035156 0.226562 12.585938 0.226562 Z M 12.585938 0.226562 "/>
<path style="fill-rule:nonzero;fill:rgb(68.627451%,85.490196%,82.352941%);fill-opacity:1;stroke-width:0.25;stroke-linecap:butt;stroke-linejoin:miter;stroke:rgb(100%,100%,100%);stroke-opacity:1;stroke-miterlimit:4;" d="M 100.426356 73.988842 C 103.071767 73.988842 105.221164 71.839446 105.221164 69.194034 C 105.221164 66.507289 103.071767 64.357892 100.426356 64.357892 C 97.780945 64.357892 95.631548 66.507289 95.631548 69.194034 C 95.631548 71.839446 97.780945 73.988842 100.426356 73.988842 Z M 90.092719 81.222388 C 92.655461 81.222388 94.722188 79.155661 94.722188 76.551584 C 94.722188 73.988842 92.655461 71.922115 90.092719 71.922115 C 87.529977 71.922115 85.421915 73.988842 85.421915 76.551584 C 85.421915 79.155661 87.529977 81.222388 90.092719 81.222388 Z M 80.131093 85.810523 C 81.701805 85.851858 83.189849 85.025167 83.975206 83.661127 C 84.760562 82.297086 84.760562 80.60237 83.975206 79.23833 C 83.189849 77.87429 81.701805 77.047599 80.131093 77.088933 C 77.733689 77.088933 75.74963 79.031657 75.74963 81.470395 C 75.74963 83.867799 77.733689 85.810523 80.131093 85.810523 Z M 109.147946 68.24334 C 110.925331 68.284674 112.578713 67.33398 113.488073 65.804601 C 114.397433 64.275223 114.397433 62.373834 113.488073 60.803121 C 112.578713 59.273743 110.925331 58.323048 109.147946 58.364383 C 106.4612 58.405717 104.311804 60.637783 104.311804 63.324529 C 104.311804 66.011274 106.4612 68.202005 109.147946 68.24334 Z M 72.649539 75.435551 C 74.509594 75.435551 75.997638 73.947508 75.997638 72.128787 C 75.997638 70.268733 74.509594 68.780689 72.649539 68.780689 C 70.830819 68.780689 69.342775 70.268733 69.342775 72.128787 C 69.342775 73.947508 70.830819 75.435551 72.649539 75.435551 Z M 64.465299 93.664087 C 66.65603 93.664087 68.433415 91.886702 68.433415 89.695971 C 68.433415 87.50524 66.65603 85.769189 64.465299 85.769189 C 62.274568 85.769189 60.497182 87.50524 60.497182 89.695971 C 60.497182 91.886702 62.274568 93.664087 64.465299 93.664087 Z M 69.466779 62.373834 C 72.11219 62.373834 74.261587 60.265772 74.261587 57.620361 C 74.261587 55.016284 72.11219 52.866888 69.466779 52.866888 C 66.862703 52.866888 64.713306 55.016284 64.713306 57.620361 C 64.713306 60.265772 66.862703 62.373834 69.466779 62.373834 Z M 82.321824 71.302096 C 83.644529 71.302096 84.9259 70.640744 85.587253 69.483376 C 86.248606 68.326009 86.248606 66.8793 85.587253 65.763267 C 84.9259 64.6059 83.644529 63.903212 82.321824 63.944547 C 80.337765 63.985881 78.725718 65.597929 78.725718 67.623322 C 78.725718 69.60738 80.337765 71.260762 82.321824 71.302096 Z M 145.770356 60.307107 C 148.126425 60.307107 150.069149 58.364383 150.069149 56.008313 C 150.069149 53.61091 148.126425 51.70952 145.770356 51.70952 C 143.372952 51.70952 141.471563 53.61091 141.471563 56.008313 C 141.471563 58.364383 143.372952 60.307107 145.770356 60.307107 Z M 55.537036 83.123777 C 56.983745 83.123777 58.141113 81.96641 58.141113 80.519701 C 58.141113 79.072992 56.983745 77.915624 55.537036 77.915624 C 54.090327 77.915624 52.93296 79.072992 52.93296 80.519701 C 52.93296 81.96641 54.090327 83.123777 55.537036 83.123777 Z M 64.217291 80.643704 C 65.333324 80.685039 66.366688 80.106355 66.945372 79.155661 C 67.524055 78.163632 67.524055 76.96493 66.945372 76.014235 C 66.366688 75.022206 65.333324 74.443522 64.217291 74.484857 C 62.522575 74.484857 61.158535 75.890231 61.158535 77.584948 C 61.158535 79.23833 62.522575 80.643704 64.217291 80.643704 Z M 48.386159 70.847416 C 49.874203 70.888751 51.238243 70.103395 52.0236 68.822024 C 52.767621 67.540653 52.767621 65.96994 52.0236 64.688569 C 51.238243 63.407198 49.874203 62.621841 48.386159 62.663176 C 46.154094 62.70451 44.376708 64.52323 44.376708 66.755296 C 44.376708 68.987362 46.154094 70.806082 48.386159 70.847416 Z M 64.547968 69.028696 C 65.333324 69.070031 66.036012 68.656685 66.449357 67.995333 C 66.821368 67.33398 66.821368 66.507289 66.449357 65.804601 C 66.036012 65.143249 65.333324 64.771238 64.547968 64.771238 C 63.3906 64.812572 62.439906 65.763267 62.439906 66.920634 C 62.439906 68.078002 63.3906 69.028696 64.547968 69.028696 Z M 93.19281 65.721932 C 95.383541 65.721932 97.160927 63.944547 97.160927 61.712481 C 97.160927 59.52175 95.383541 57.744364 93.19281 57.744364 C 90.960744 57.744364 89.183359 59.52175 89.183359 61.712481 C 89.183359 63.944547 90.960744 65.721932 93.19281 65.721932 Z M 123.491034 68.036667 C 124.731071 68.036667 125.929773 67.375314 126.549791 66.300616 C 127.169809 65.225918 127.169809 63.903212 126.549791 62.828514 C 125.929773 61.753816 124.731071 61.092463 123.491034 61.133797 C 121.63098 61.175132 120.142936 62.70451 120.142936 64.564565 C 120.142936 66.465954 121.63098 67.995333 123.491034 68.036667 Z M 129.81522 46.542702 C 131.055257 46.542702 132.047286 45.509338 132.047286 44.269302 C 132.047286 43.029265 131.055257 42.037236 129.81522 42.037236 C 128.575184 42.037236 127.54182 43.029265 127.54182 44.269302 C 127.54182 45.509338 128.575184 46.542702 129.81522 46.542702 Z M 137.131435 59.52175 C 139.239497 59.52175 140.892879 57.827034 140.892879 55.760306 C 140.892879 53.652244 139.239497 51.957528 137.131435 51.957528 C 135.064708 51.957528 133.369991 53.652244 133.369991 55.760306 C 133.369991 57.827034 135.064708 59.52175 137.131435 59.52175 Z M 99.516996 57.289684 C 101.625058 57.289684 103.361109 55.594968 103.361109 53.445571 C 103.361109 51.296175 101.625058 49.560124 99.516996 49.560124 C 97.367599 49.560124 95.631548 51.296175 95.631548 53.445571 C 95.631548 55.594968 97.367599 57.289684 99.516996 57.289684 Z M 50.990236 94.532113 C 52.726287 94.532113 54.131662 93.126738 54.131662 91.390687 C 54.131662 89.654636 52.726287 88.249261 50.990236 88.249261 C 49.254185 88.249261 47.84881 89.654636 47.84881 91.390687 C 47.84881 93.126738 49.254185 94.532113 50.990236 94.532113 Z M 50.990236 94.532113 " transform="matrix(0.0945033,0,0,0.0945033,0.403912,0)"/>
<path style="fill-rule:nonzero;fill:rgb(68.627451%,85.490196%,82.352941%);fill-opacity:1;stroke-width:0.25;stroke-linecap:butt;stroke-linejoin:miter;stroke:rgb(100%,100%,100%);stroke-opacity:1;stroke-miterlimit:4;" d="M 154.491946 61.133797 C 157.137357 61.133797 159.245419 58.984401 159.245419 56.33899 C 159.245419 53.693579 157.137357 51.544182 154.491946 51.544182 C 151.846535 51.544182 149.697138 53.693579 149.697138 56.33899 C 149.697138 58.984401 151.846535 61.133797 154.491946 61.133797 Z M 108.321255 57.909703 C 110.718659 57.909703 112.702717 55.925644 112.702717 53.486906 C 112.702717 51.089502 110.718659 49.105444 108.321255 49.105444 C 105.882516 49.105444 103.898458 51.089502 103.898458 53.486906 C 103.898458 55.925644 105.882516 57.909703 108.321255 57.909703 Z M 57.273087 61.423139 C 59.546487 61.423139 61.365208 59.604419 61.365208 57.372354 C 61.365208 55.098953 59.546487 53.280233 57.273087 53.280233 C 55.041022 53.280233 53.222301 55.098953 53.222301 57.372354 C 53.222301 59.604419 55.041022 61.423139 57.273087 61.423139 Z M 79.92442 50.924164 C 82.528496 50.924164 84.636558 48.816102 84.636558 46.212025 C 84.636558 43.607949 82.528496 41.499887 79.92442 41.499887 C 77.361678 41.499887 75.253616 43.607949 75.253616 46.212025 C 75.253616 48.816102 77.361678 50.924164 79.92442 50.924164 Z M 168.25635 57.24835 C 169.868398 57.24835 171.191103 55.966979 171.191103 54.354932 C 171.191103 52.742884 169.868398 51.461513 168.25635 51.461513 C 166.644303 51.461513 165.362932 52.742884 165.362932 54.354932 C 165.362932 55.966979 166.644303 57.24835 168.25635 57.24835 Z M 66.986706 45.385334 C 68.309412 45.385334 69.549448 44.723982 70.252136 43.566614 C 70.913488 42.409247 70.913488 40.962538 70.252136 39.80517 C 69.549448 38.647803 68.309412 37.945116 66.986706 37.98645 C 64.961313 38.027785 63.349266 39.681167 63.349266 41.665225 C 63.349266 43.690618 64.961313 45.344 66.986706 45.385334 Z M 83.644529 61.960488 C 85.38058 61.960488 86.785955 60.555114 86.785955 58.819063 C 86.785955 57.083012 85.38058 55.636303 83.644529 55.636303 C 81.908478 55.636303 80.503104 57.083012 80.503104 58.819063 C 80.503104 60.555114 81.908478 61.960488 83.644529 61.960488 Z M 91.208752 55.098953 C 92.366119 55.140288 93.440817 54.52027 94.019501 53.528241 C 94.598185 52.536211 94.598185 51.296175 94.019501 50.304146 C 93.440817 49.312117 92.366119 48.692098 91.208752 48.733433 C 89.472701 48.733433 88.067326 50.180142 88.067326 51.916193 C 88.067326 53.652244 89.472701 55.098953 91.208752 55.098953 Z M 41.813966 63.241859 C 43.591352 63.241859 45.038061 61.79515 45.038061 60.017765 C 45.038061 58.240379 43.591352 56.79367 41.813966 56.79367 C 40.03658 56.79367 38.589871 58.240379 38.589871 60.017765 C 38.589871 61.79515 40.03658 63.241859 41.813966 63.241859 Z M 50.659559 50.717491 C 52.312941 50.717491 53.635647 49.394786 53.635647 47.782738 C 53.635647 46.129356 52.312941 44.806651 50.659559 44.806651 C 49.047512 44.806651 47.724806 46.129356 47.724806 47.782738 C 47.724806 49.394786 49.047512 50.717491 50.659559 50.717491 Z M 118.82023 59.893761 C 120.18427 59.893761 121.300303 58.777728 121.300303 57.413688 C 121.300303 56.049648 120.18427 54.933615 118.82023 54.933615 C 117.45619 54.933615 116.340157 56.049648 116.340157 57.413688 C 116.340157 58.777728 117.45619 59.893761 118.82023 59.893761 Z M 39.540566 79.527672 C 41.772631 79.527672 43.632686 77.708952 43.632686 75.435551 C 43.632686 73.203486 41.772631 71.343431 39.540566 71.343431 C 37.267166 71.343431 35.448446 73.203486 35.448446 75.435551 C 35.448446 77.708952 37.267166 79.527672 39.540566 79.527672 Z M 30.405631 72.624802 C 31.521663 72.666137 32.555027 72.087453 33.092376 71.136758 C 33.67106 70.144729 33.67106 68.987362 33.092376 67.995333 C 32.555027 67.044638 31.521663 66.465954 30.405631 66.507289 C 28.710914 66.507289 27.388209 67.871329 27.388209 69.566045 C 27.388209 71.260762 28.710914 72.624802 30.405631 72.624802 Z M 127.252478 59.191074 C 128.988529 59.191074 130.352569 57.785699 130.352569 56.090983 C 130.352569 54.354932 128.988529 52.990891 127.252478 52.990891 C 125.557762 52.990891 124.193722 54.354932 124.193722 56.090983 C 124.193722 57.785699 125.557762 59.191074 127.252478 59.191074 Z M 56.901076 75.228879 C 59.546487 75.228879 61.695884 73.120817 61.695884 70.475405 C 61.695884 67.829994 59.546487 65.680598 56.901076 65.680598 C 54.297 65.680598 52.147603 67.829994 52.147603 70.475405 C 52.147603 73.120817 54.297 75.228879 56.901076 75.228879 Z M 56.901076 75.228879 " transform="matrix(0.0945033,0,0,0.0945033,0.403912,0)"/>
<path style="fill-rule:nonzero;fill:rgb(68.627451%,85.490196%,82.352941%);fill-opacity:1;stroke-width:0.25;stroke-linecap:butt;stroke-linejoin:miter;stroke:rgb(100%,100%,100%);stroke-opacity:1;stroke-miterlimit:4;" d="M 162.014834 53.569575 C 163.750885 53.569575 165.321597 52.660215 166.189623 51.172171 C 167.098983 49.684128 167.098983 47.865407 166.189623 46.377364 C 165.321597 44.847985 163.750885 43.97996 162.014834 43.97996 C 159.410757 44.021294 157.302695 46.170691 157.302695 48.774767 C 157.302695 51.378844 159.410757 53.528241 162.014834 53.569575 Z M 42.061973 98.624233 C 43.591352 98.624233 44.831388 97.384197 44.831388 95.854818 C 44.831388 94.32544 43.591352 93.085404 42.061973 93.085404 C 40.532595 93.085404 39.292559 94.32544 39.292559 95.854818 C 39.292559 97.384197 40.532595 98.624233 42.061973 98.624233 Z M 111.421346 44.475974 C 112.785386 44.475974 114.066757 43.773287 114.769444 42.574585 C 115.472132 41.375883 115.472132 39.929174 114.769444 38.730472 C 114.066757 37.53177 112.785386 36.829083 111.421346 36.829083 C 109.313284 36.870417 107.659902 38.565134 107.659902 40.673196 C 107.659902 42.739923 109.313284 44.43464 111.421346 44.475974 Z M 190.70101 49.725462 C 192.850407 49.725462 194.586458 47.989411 194.586458 45.840014 C 194.586458 43.690618 192.850407 41.913232 190.70101 41.913232 C 188.551614 41.913232 186.815563 43.690618 186.815563 45.840014 C 186.815563 47.989411 188.551614 49.725462 190.70101 49.725462 Z M 138.826152 47.741404 C 140.562203 47.741404 141.926243 46.336029 141.926243 44.641313 C 141.926243 42.905262 140.562203 41.541221 138.826152 41.541221 C 137.131435 41.541221 135.726061 42.905262 135.726061 44.641313 C 135.726061 46.336029 137.131435 47.741404 138.826152 47.741404 Z M 71.161496 88.703941 C 73.393561 88.703941 75.212281 86.885221 75.212281 84.653156 C 75.212281 82.42109 73.393561 80.60237 71.161496 80.60237 C 68.92943 80.60237 67.11071 82.42109 67.11071 84.653156 C 67.11071 86.885221 68.92943 88.703941 71.161496 88.703941 Z M 149.366462 49.064109 C 151.515858 49.064109 153.251909 47.328058 153.251909 45.219996 C 153.251909 43.0706 151.515858 41.334549 149.366462 41.334549 C 147.217065 41.334549 145.481014 43.0706 145.481014 45.219996 C 145.481014 47.328058 147.217065 49.064109 149.366462 49.064109 Z M 176.812602 52.866888 C 178.589988 52.866888 179.995362 51.420179 179.995362 49.642793 C 179.995362 47.865407 178.589988 46.418698 176.812602 46.418698 C 175.035216 46.418698 173.588507 47.865407 173.588507 49.642793 C 173.588507 51.420179 175.035216 52.866888 176.812602 52.866888 Z M 207.110826 59.811092 C 208.722874 59.811092 210.004245 58.529721 210.004245 56.917674 C 210.004245 55.305626 208.722874 54.024255 207.110826 54.024255 C 205.498779 54.024255 204.217408 55.305626 204.217408 56.917674 C 204.217408 58.529721 205.498779 59.811092 207.110826 59.811092 Z M 98.814309 38.523799 C 100.178349 38.523799 101.294382 37.407767 101.294382 36.043726 C 101.294382 34.679686 100.178349 33.563654 98.814309 33.563654 C 97.408934 33.563654 96.292901 34.679686 96.292901 36.043726 C 96.292901 37.407767 97.408934 38.523799 98.814309 38.523799 Z M 121.465641 31.703599 C 123.491034 31.703599 125.144416 30.050217 125.144416 28.024824 C 125.144416 26.040766 123.491034 24.387384 121.465641 24.387384 C 119.481583 24.387384 117.828201 26.040766 117.828201 28.024824 C 117.828201 30.050217 119.481583 31.703599 121.465641 31.703599 Z M 206.490808 51.25484 C 209.136219 51.25484 211.285616 49.105444 211.285616 46.460033 C 211.285616 43.814622 209.136219 41.665225 206.490808 41.665225 C 203.804062 41.665225 201.654666 43.814622 201.654666 46.460033 C 201.654666 49.105444 203.804062 51.25484 206.490808 51.25484 Z M 115.968146 53.238899 C 118.489554 53.238899 120.514947 51.213506 120.514947 48.692098 C 120.514947 46.170691 118.489554 44.145298 115.968146 44.145298 C 113.446739 44.145298 111.421346 46.170691 111.421346 48.692098 C 111.421346 51.213506 113.446739 53.238899 115.968146 53.238899 Z M 132.791308 36.209065 C 135.312715 36.209065 137.338108 34.183672 137.338108 31.662264 C 137.338108 29.140857 135.312715 27.115464 132.791308 27.115464 C 130.311235 27.115464 128.244507 29.140857 128.244507 31.662264 C 128.244507 34.183672 130.311235 36.209065 132.791308 36.209065 Z M 172.100463 41.70656 C 173.79518 41.747894 175.407227 40.879869 176.233918 39.391825 C 177.101944 37.945116 177.101944 36.126396 176.233918 34.638352 C 175.407227 33.191643 173.79518 32.282283 172.100463 32.323617 C 169.537721 32.364952 167.470994 34.473014 167.470994 37.035756 C 167.470994 39.598498 169.537721 41.70656 172.100463 41.70656 Z M 220.751227 71.260762 C 222.363275 71.302096 223.892653 70.475405 224.719344 69.070031 C 225.5047 67.664656 225.5047 65.96994 224.719344 64.564565 C 223.892653 63.15919 222.363275 62.332499 220.751227 62.373834 C 218.353823 62.415168 216.4111 64.399227 216.4111 66.796631 C 216.4111 69.235369 218.353823 71.219427 220.751227 71.260762 Z M 120.473612 17.401845 C 121.878987 17.401845 122.99502 16.285812 122.99502 14.880438 C 122.99502 13.475063 121.878987 12.317696 120.473612 12.317696 C 119.068237 12.317696 117.91087 13.475063 117.91087 14.880438 C 117.91087 16.285812 119.068237 17.401845 120.473612 17.401845 Z M 120.473612 17.401845 " transform="matrix(0.0945033,0,0,0.0945033,0.403912,0)"/>
<path style="fill-rule:nonzero;fill:rgb(68.627451%,85.490196%,82.352941%);fill-opacity:1;stroke-width:0.25;stroke-linecap:butt;stroke-linejoin:miter;stroke:rgb(100%,100%,100%);stroke-opacity:1;stroke-miterlimit:4;" d="M 161.022804 44.351971 C 163.378874 44.351971 165.280263 42.450581 165.280263 40.094512 C 165.280263 37.738443 163.378874 35.837054 161.022804 35.837054 C 158.70807 35.878388 156.80668 37.779777 156.80668 40.094512 C 156.80668 42.450581 158.70807 44.351971 161.022804 44.351971 Z M 155.318637 36.16773 C 157.220026 36.16773 158.749404 34.638352 158.749404 32.736963 C 158.749404 30.835573 157.220026 29.306195 155.318637 29.306195 C 153.417247 29.306195 151.887869 30.835573 151.887869 32.736963 C 151.887869 34.638352 153.417247 36.16773 155.318637 36.16773 Z M 137.999461 28.686177 C 140.438199 28.686177 142.422257 26.702118 142.422257 24.26338 C 142.422257 21.824642 140.438199 19.840583 137.999461 19.840583 C 135.560722 19.840583 133.576664 21.824642 133.576664 24.26338 C 133.576664 26.702118 135.560722 28.686177 137.999461 28.686177 Z M 89.266028 46.70804 C 92.035443 46.70804 94.226174 44.475974 94.226174 41.747894 C 94.226174 39.019814 92.035443 36.787748 89.266028 36.787748 C 86.537948 36.787748 84.347217 39.019814 84.347217 41.747894 C 84.347217 44.475974 86.537948 46.70804 89.266028 46.70804 Z M 58.719796 39.391825 C 59.711826 39.433159 60.621186 38.89581 61.1172 38.069119 C 61.613215 37.242428 61.613215 36.16773 61.1172 35.341039 C 60.621186 34.514348 59.711826 33.976999 58.719796 34.018334 C 57.273087 34.018334 56.074385 35.217035 56.074385 36.705079 C 56.074385 38.193123 57.273087 39.391825 58.719796 39.391825 Z M 71.533507 37.614439 C 73.47623 37.614439 75.046943 36.043726 75.046943 34.101003 C 75.046943 32.158279 73.47623 30.587566 71.533507 30.587566 C 69.632117 30.587566 68.061404 32.158279 68.061404 34.101003 C 68.061404 36.043726 69.632117 37.614439 71.533507 37.614439 Z M 189.006294 58.777728 C 190.577007 58.819063 192.023716 57.992372 192.809072 56.628332 C 193.594429 55.305626 193.594429 53.652244 192.809072 52.288204 C 192.023716 50.965499 190.577007 50.138808 189.006294 50.138808 C 186.650225 50.138808 184.707501 52.081531 184.707501 54.478935 C 184.707501 56.835004 186.650225 58.777728 189.006294 58.777728 Z M 141.71957 36.043726 C 143.042276 36.043726 144.116974 34.969028 144.116974 33.687657 C 144.116974 32.364952 143.042276 31.290253 141.71957 31.290253 C 140.396865 31.290253 139.363501 32.364952 139.363501 33.687657 C 139.363501 34.969028 140.396865 36.043726 141.71957 36.043726 Z M 90.91941 36.539741 C 93.440817 36.539741 95.46621 34.514348 95.46621 31.992941 C 95.46621 29.512868 93.440817 27.44614 90.91941 27.44614 C 88.398002 27.44614 86.372609 29.512868 86.372609 31.992941 C 86.372609 34.514348 88.398002 36.539741 90.91941 36.539741 Z M 24.329452 92.176044 C 26.520183 92.176044 28.256234 90.398658 28.256234 88.249261 C 28.256234 86.05853 26.520183 84.281145 24.329452 84.281145 C 22.138721 84.281145 20.361335 86.05853 20.361335 88.249261 C 20.361335 90.398658 22.138721 92.176044 24.329452 92.176044 Z M 34.828427 93.540084 C 37.349835 93.540084 39.416562 91.473356 39.416562 88.951949 C 39.416562 86.430541 37.349835 84.363814 34.828427 84.363814 C 32.30702 84.363814 30.240292 86.430541 30.240292 88.951949 C 30.240292 91.473356 32.30702 93.540084 34.828427 93.540084 Z M 71.905517 53.114895 C 74.344256 53.114895 76.28698 51.130837 76.28698 48.692098 C 76.28698 46.25336 74.344256 44.310636 71.905517 44.310636 C 69.466779 44.310636 67.482721 46.25336 67.482721 48.692098 C 67.482721 51.130837 69.466779 53.114895 71.905517 53.114895 Z M 25.610823 82.338421 C 27.512212 82.338421 29.04159 80.809043 29.04159 78.948988 C 29.04159 77.047599 27.512212 75.51822 25.610823 75.51822 C 23.750768 75.51822 22.22139 77.047599 22.22139 78.948988 C 22.22139 80.809043 23.750768 82.338421 25.610823 82.338421 Z M 163.502877 32.695628 C 165.569605 32.695628 167.264321 31.042246 167.264321 28.975519 C 167.264321 26.908791 165.569605 25.214075 163.502877 25.214075 C 161.43615 25.214075 159.782768 26.908791 159.782768 28.975519 C 159.782768 31.042246 161.43615 32.695628 163.502877 32.695628 Z M 59.339815 48.444091 C 61.199869 48.444091 62.729248 46.914713 62.729248 45.013324 C 62.729248 43.153269 61.199869 41.623891 59.339815 41.623891 C 57.438425 41.623891 55.909047 43.153269 55.909047 45.013324 C 55.909047 46.914713 57.438425 48.444091 59.339815 48.444091 Z M 59.339815 48.444091 " transform="matrix(0.0945033,0,0,0.0945033,0.403912,0)"/>
<path style="fill-rule:nonzero;fill:rgb(68.627451%,85.490196%,82.352941%);fill-opacity:1;stroke-width:0.25;stroke-linecap:butt;stroke-linejoin:miter;stroke:rgb(100%,100%,100%);stroke-opacity:1;stroke-miterlimit:4;" d="M 42.805995 89.447963 C 45.451406 89.447963 47.600803 87.298567 47.600803 84.653156 C 47.600803 82.049079 45.451406 79.899683 42.805995 79.899683 C 40.201919 79.899683 38.052522 82.049079 38.052522 84.653156 C 38.052522 87.298567 40.201919 89.447963 42.805995 89.447963 Z M 198.099895 56.959008 C 199.753276 56.959008 201.323989 56.090983 202.192015 54.602939 C 203.06004 53.15623 203.06004 51.378844 202.192015 49.8908 C 201.323989 48.444091 199.753276 47.576066 198.099895 47.576066 C 195.495818 47.576066 193.387756 49.684128 193.387756 52.24687 C 193.387756 54.850946 195.495818 56.959008 198.099895 56.959008 Z M 214.96439 56.380324 C 216.121758 56.421659 217.196456 55.801641 217.77514 54.809612 C 218.395158 53.776248 218.395158 52.536211 217.77514 51.544182 C 217.196456 50.552153 216.121758 49.932135 214.96439 49.932135 C 213.187005 49.973469 211.78163 51.420179 211.78163 53.15623 C 211.78163 54.933615 213.187005 56.33899 214.96439 56.380324 Z M 103.691785 48.402756 C 105.675844 48.402756 107.287891 46.832044 107.287891 44.847985 C 107.287891 42.863927 105.675844 41.25188 103.691785 41.25188 C 101.707727 41.25188 100.09568 42.863927 100.09568 44.847985 C 100.09568 46.832044 101.707727 48.402756 103.691785 48.402756 Z M 182.392766 44.393305 C 183.467464 44.393305 184.459493 43.855956 185.038177 42.905262 C 185.575526 41.954567 185.575526 40.7972 185.038177 39.887839 C 184.459493 38.937145 183.467464 38.358461 182.392766 38.399796 C 180.739384 38.399796 179.416679 39.763836 179.416679 41.375883 C 179.416679 43.029265 180.739384 44.351971 182.392766 44.393305 Z M 181.111395 36.870417 C 183.798141 36.870417 185.988872 34.679686 185.988872 31.951606 C 185.988872 29.26486 183.798141 27.074129 181.111395 27.074129 C 178.383315 27.074129 176.192584 29.26486 176.192584 31.951606 C 176.192584 34.679686 178.383315 36.870417 181.111395 36.870417 Z M 120.721619 45.219996 C 123.119023 45.219996 125.103082 43.235938 125.103082 40.838534 C 125.103082 38.399796 123.119023 36.457072 120.721619 36.457072 C 118.282881 36.457072 116.340157 38.399796 116.340157 40.838534 C 116.340157 43.235938 118.282881 45.219996 120.721619 45.219996 Z M 213.228339 66.383285 C 215.295067 66.383285 216.989783 64.688569 216.989783 62.621841 C 216.989783 60.555114 215.295067 58.860397 213.228339 58.860397 C 211.161612 58.860397 209.466895 60.555114 209.466895 62.621841 C 209.466895 64.688569 211.161612 66.383285 213.228339 66.383285 Z M 33.919067 100.277615 C 35.159104 100.277615 36.151133 99.285586 36.151133 98.086884 C 36.151133 96.888182 35.159104 95.896153 33.919067 95.896153 C 32.720365 95.896153 31.728336 96.888182 31.728336 98.086884 C 31.728336 99.285586 32.720365 100.277615 33.919067 100.277615 Z M 80.213762 39.226487 C 82.487162 39.226487 84.347217 37.366432 84.347217 35.093032 C 84.347217 32.819632 82.487162 30.959577 80.213762 30.959577 C 77.940362 30.959577 76.121641 32.819632 76.121641 35.093032 C 76.121641 37.366432 77.940362 39.226487 80.213762 39.226487 Z M 110.263979 32.488955 C 111.297342 32.53029 112.289372 31.951606 112.826721 31.042246 C 113.36407 30.132886 113.36407 28.975519 112.826721 28.066159 C 112.289372 27.156798 111.297342 26.619449 110.263979 26.619449 C 108.651931 26.660784 107.37056 27.942155 107.37056 29.554202 C 107.37056 31.16625 108.651931 32.488955 110.263979 32.488955 Z M 195.495818 41.541221 C 197.562545 41.541221 199.215927 39.887839 199.215927 37.862447 C 199.215927 35.795719 197.562545 34.142337 195.495818 34.142337 C 193.470425 34.142337 191.817043 35.795719 191.817043 37.862447 C 191.817043 39.887839 193.470425 41.541221 195.495818 41.541221 Z M 102.038403 26.578115 C 104.601145 26.578115 106.626538 24.511387 106.626538 21.98998 C 106.626538 19.427238 104.601145 17.36051 102.038403 17.36051 C 99.516996 17.36051 97.450269 19.427238 97.450269 21.98998 C 97.450269 24.511387 99.516996 26.578115 102.038403 26.578115 Z M 102.038403 26.578115 " transform="matrix(0.0945033,0,0,0.0945033,0.403912,0)"/>
<path style="fill-rule:nonzero;fill:rgb(68.627451%,85.490196%,82.352941%);fill-opacity:1;stroke-width:0.25;stroke-linecap:butt;stroke-linejoin:miter;stroke:rgb(100%,100%,100%);stroke-opacity:1;stroke-miterlimit:4;" d="M 174.167191 30.959577 C 176.481926 30.959577 178.383315 29.058188 178.383315 26.702118 C 178.383315 24.346049 176.481926 22.44466 174.167191 22.44466 C 171.811122 22.44466 169.909732 24.346049 169.909732 26.702118 C 169.909732 29.058188 171.811122 30.959577 174.167191 30.959577 Z M 81.329795 26.412777 C 83.189849 26.412777 84.719228 24.883398 84.719228 23.023344 C 84.719228 21.121954 83.189849 19.633911 81.329795 19.633911 C 79.428405 19.633911 77.940362 21.121954 77.940362 23.023344 C 77.940362 24.883398 79.428405 26.412777 81.329795 26.412777 Z M 89.514035 23.8087 C 91.580763 23.8087 93.275479 22.113984 93.275479 20.047256 C 93.275479 17.980529 91.580763 16.285812 89.514035 16.285812 C 87.447308 16.285812 85.752591 17.980529 85.752591 20.047256 C 85.752591 22.113984 87.447308 23.8087 89.514035 23.8087 Z M 147.382403 19.096561 C 149.821142 19.096561 151.8052 17.112503 151.8052 14.673765 C 151.8052 12.235026 149.821142 10.292303 147.382403 10.292303 C 144.985 10.292303 143.000941 12.235026 143.000941 14.673765 C 143.000941 17.112503 144.985 19.096561 147.382403 19.096561 Z M 129.691216 20.005922 C 131.592606 20.005922 133.121984 18.476543 133.121984 16.575154 C 133.121984 14.715099 131.592606 13.144386 129.691216 13.144386 C 127.789827 13.144386 126.260449 14.715099 126.260449 16.575154 C 126.260449 18.476543 127.789827 20.005922 129.691216 20.005922 Z M 156.186662 24.222046 C 157.137357 24.222046 158.046717 23.726031 158.501397 22.89934 C 158.997412 22.072649 158.997412 21.08062 158.501397 20.253929 C 158.046717 19.427238 157.137357 18.931223 156.186662 18.972558 C 154.781288 18.972558 153.62392 20.17126 153.62392 21.576634 C 153.62392 23.023344 154.781288 24.180711 156.186662 24.222046 Z M 156.186662 24.222046 " transform="matrix(0.0945033,0,0,0.0945033,0.403912,0)"/>
<path style="fill-rule:nonzero;fill:rgb(68.627451%,85.490196%,82.352941%);fill-opacity:1;stroke-width:0.25;stroke-linecap:butt;stroke-linejoin:miter;stroke:rgb(100%,100%,100%);stroke-opacity:1;stroke-miterlimit:4;" d="M 147.423738 28.231497 C 150.110484 28.231497 152.301215 26.040766 152.301215 23.35402 C 152.301215 20.667274 150.110484 18.517878 147.423738 18.517878 C 144.736992 18.517878 142.587596 20.667274 142.587596 23.35402 C 142.587596 26.040766 144.736992 28.231497 147.423738 28.231497 Z M 166.726972 23.519358 C 168.587027 23.519358 170.116405 21.98998 170.116405 20.17126 C 170.116405 18.311205 168.587027 16.781827 166.726972 16.781827 C 164.908252 16.781827 163.378874 18.311205 163.378874 20.17126 C 163.378874 21.98998 164.908252 23.519358 166.726972 23.519358 Z M 15.938539 105.485768 C 18.253273 105.485768 20.154663 103.625714 20.154663 101.269644 C 20.154663 98.95491 18.253273 97.05352 15.938539 97.05352 C 13.582469 97.05352 11.722415 98.95491 11.722415 101.269644 C 11.722415 103.625714 13.582469 105.485768 15.938539 105.485768 Z M 111.710688 23.230016 C 112.992059 23.230016 113.984088 22.196653 113.984088 20.956616 C 113.984088 19.675245 112.992059 18.683216 111.710688 18.683216 C 110.470651 18.683216 109.437288 19.675245 109.437288 20.956616 C 109.437288 22.196653 110.470651 23.230016 111.710688 23.230016 Z M 189.79165 33.646323 C 191.321029 33.646323 192.561065 32.406286 192.561065 30.876908 C 192.561065 29.388864 191.321029 28.148828 189.79165 28.148828 C 188.303607 28.148828 187.06357 29.388864 187.06357 30.876908 C 187.06357 32.406286 188.303607 33.646323 189.79165 33.646323 Z M 138.53681 19.923252 C 140.727541 19.923252 142.504927 18.145867 142.504927 15.955136 C 142.504927 13.764405 140.727541 11.987019 138.53681 11.987019 C 136.346079 11.987019 134.568693 13.764405 134.568693 15.955136 C 134.568693 18.145867 136.346079 19.923252 138.53681 19.923252 Z M 47.931479 80.14769 C 50.494221 80.14769 52.519614 78.080962 52.519614 75.559555 C 52.519614 73.038148 50.494221 71.012755 47.931479 71.012755 C 45.410072 71.012755 43.384679 73.038148 43.384679 75.559555 C 43.384679 78.080962 45.410072 80.14769 47.931479 80.14769 Z M 47.931479 80.14769 " transform="matrix(0.0945033,0,0,0.0945033,0.403912,0)"/>
<path style=" stroke:none;fill-rule:nonzero;fill:rgb(100%,100%,100%);fill-opacity:1;" d="M 16.878906 5.535156 L 16.433594 5.523438 L 15.988281 5.535156 L 15.542969 5.566406 L 15.097656 5.617188 L 14.652344 5.6875 L 14.207031 5.777344 L 13.761719 5.886719 L 13.320312 6.007812 L 12.878906 6.148438 L 12.433594 6.300781 L 11.996094 6.464844 L 11.554688 6.640625 L 11.113281 6.824219 L 10.675781 7.011719 L 9.800781 7.402344 L 8.925781 7.800781 L 8.488281 7.996094 L 8.054688 8.191406 L 7.617188 8.378906 L 7.183594 8.5625 L 6.75 8.742188 L 6.316406 8.910156 L 5.882812 9.074219 L 5.449219 9.230469 L 5.015625 9.375 L 4.582031 9.511719 L 4.148438 9.636719 L 3.714844 9.757812 L 3.28125 9.867188 L 2.851562 9.964844 L 2.417969 10.058594 L 1.984375 10.140625 L 1.550781 10.21875 L 1.074219 10.292969 L 1.054688 10.4375 C 0.914062 11.414062 0.898438 12.40625 1.007812 13.390625 L 1.039062 13.660156 L 1.664062 13.378906 L 2.101562 13.183594 L 2.976562 12.785156 L 3.414062 12.589844 L 3.847656 12.398438 L 4.28125 12.210938 L 4.71875 12.027344 L 5.152344 11.855469 L 5.582031 11.695312 L 6.015625 11.546875 L 6.445312 11.410156 L 6.878906 11.289062 L 7.308594 11.183594 L 7.738281 11.097656 L 8.164062 11.03125 L 8.59375 10.980469 L 9.019531 10.949219 L 9.449219 10.941406 L 9.875 10.949219 L 10.304688 10.980469 L 10.730469 11.03125 L 11.160156 11.097656 L 11.585938 11.1875 L 12.015625 11.289062 L 12.445312 11.410156 L 12.878906 11.546875 L 13.308594 11.695312 L 13.742188 11.859375 L 14.171875 12.03125 L 14.605469 12.210938 L 15.042969 12.398438 L 15.476562 12.589844 L 15.910156 12.785156 L 16.785156 13.183594 L 17.660156 13.574219 L 18.097656 13.765625 L 18.535156 13.949219 L 18.972656 14.128906 L 19.414062 14.300781 L 19.851562 14.464844 L 20.292969 14.621094 L 20.734375 14.769531 L 21.171875 14.910156 L 21.613281 15.039062 L 22.054688 15.160156 L 22.492188 15.269531 L 22.933594 15.371094 L 23.554688 15.503906 L 23.605469 15.328125 C 23.894531 14.324219 24.050781 13.289062 24.0625 12.242188 L 24.066406 12.097656 L 24.0625 11.949219 L 24.0625 11.792969 C 24.023438 10.375 23.726562 8.980469 23.183594 7.671875 L 23.144531 7.574219 L 23.074219 7.410156 L 22.625 7.207031 L 22.1875 7.011719 L 21.746094 6.824219 L 21.308594 6.640625 L 20.867188 6.46875 L 20.429688 6.300781 L 19.988281 6.148438 L 19.546875 6.011719 L 19.101562 5.886719 L 18.660156 5.777344 L 18.214844 5.6875 L 17.769531 5.617188 L 17.324219 5.566406 Z M 16.429688 5.722656 L 16.867188 5.730469 L 17.300781 5.761719 L 17.738281 5.8125 L 18.175781 5.882812 L 18.613281 5.972656 L 19.050781 6.078125 L 19.484375 6.199219 L 19.921875 6.335938 L 20.359375 6.488281 L 20.796875 6.652344 L 21.230469 6.824219 L 21.667969 7.007812 L 22.105469 7.195312 L 22.542969 7.386719 L 22.921875 7.558594 C 23.503906 8.898438 23.824219 10.335938 23.863281 11.796875 L 23.867188 11.953125 L 23.867188 12.242188 C 23.851562 13.265625 23.699219 14.285156 23.414062 15.273438 L 22.980469 15.179688 L 22.542969 15.078125 L 22.105469 14.96875 L 21.667969 14.847656 L 21.230469 14.71875 L 20.796875 14.582031 L 20.359375 14.4375 L 19.921875 14.28125 L 19.484375 14.117188 L 19.050781 13.945312 L 18.613281 13.769531 L 17.738281 13.394531 L 17.300781 13.199219 L 16.867188 13.003906 L 15.992188 12.605469 L 15.554688 12.410156 L 15.121094 12.214844 L 14.683594 12.027344 L 14.246094 11.84375 L 13.808594 11.671875 L 13.375 11.507812 L 12.9375 11.359375 L 12.5 11.222656 L 12.0625 11.097656 L 11.625 10.992188 L 11.191406 10.902344 L 10.753906 10.832031 L 10.316406 10.785156 L 9.878906 10.753906 L 9.445312 10.742188 L 9.007812 10.753906 L 8.570312 10.785156 L 8.132812 10.832031 L 7.699219 10.902344 L 7.261719 10.992188 L 6.824219 11.097656 L 6.386719 11.222656 L 5.949219 11.359375 L 5.515625 11.507812 L 5.078125 11.671875 L 4.640625 11.84375 L 4.203125 12.027344 L 3.769531 12.214844 L 2.894531 12.605469 L 2.023438 13.003906 L 1.585938 13.199219 L 1.203125 13.367188 C 1.097656 12.402344 1.109375 11.425781 1.25 10.464844 L 1.585938 10.414062 L 2.019531 10.335938 L 2.457031 10.25 L 2.894531 10.160156 L 3.332031 10.058594 L 3.769531 9.945312 L 4.203125 9.828125 L 4.640625 9.699219 L 5.078125 9.5625 L 5.515625 9.414062 L 5.949219 9.261719 L 6.386719 9.097656 L 6.824219 8.925781 L 7.261719 8.746094 L 7.699219 8.5625 L 8.132812 8.371094 L 8.570312 8.179688 L 9.007812 7.980469 L 9.878906 7.585938 L 10.316406 7.386719 L 10.753906 7.195312 L 11.191406 7.007812 L 11.625 6.824219 L 12.0625 6.652344 L 12.5 6.488281 L 12.9375 6.335938 L 13.375 6.199219 L 13.808594 6.078125 L 14.246094 5.972656 L 14.683594 5.882812 L 15.121094 5.8125 L 15.554688 5.761719 L 15.992188 5.730469 Z M 16.429688 5.722656 "/>
<path style="fill-rule:nonzero;fill:rgb(49.019608%,69.019608%,73.72549%);fill-opacity:1;stroke-width:1;stroke-linecap:butt;stroke-linejoin:miter;stroke:rgb(100%,100%,100%);stroke-opacity:1;stroke-miterlimit:4;" d="M 169.579056 60.059099 L 174.208525 60.141768 L 178.879329 60.472445 L 183.508799 61.009794 L 188.138268 61.753816 L 192.767738 62.70451 L 197.438542 63.820543 L 202.068011 65.143249 L 206.697481 66.589958 L 211.32695 68.202005 L 215.95642 69.896722 L 220.585889 71.756776 L 225.215358 73.658166 L 234.474297 77.708952 L 238.649087 79.610341 C 244.973273 94.077433 248.40404 109.660558 248.734717 125.450355 L 248.776051 126.483719 L 248.776051 129.542476 C 248.610713 140.5788 246.957331 151.57379 243.815905 162.196769 L 238.77309 161.122071 L 234.143621 160.047372 L 229.514152 158.890005 L 224.884682 157.608634 L 220.255213 156.244594 L 215.625743 154.797885 L 210.996274 153.227172 L 206.366804 151.57379 L 201.737335 149.837739 L 197.107865 148.019019 L 192.478396 146.158964 L 183.219457 142.190847 L 178.631322 140.12412 L 174.001853 138.057393 L 164.742914 133.841269 L 160.113444 131.774541 L 155.525309 129.707814 L 150.89584 127.723755 L 146.307705 125.822366 L 141.678236 123.962311 L 137.048766 122.267595 L 132.460631 120.655548 L 127.872496 119.208838 L 123.243027 117.927467 L 118.654892 116.811435 L 114.066757 115.86074 L 109.437288 115.116718 L 104.849153 114.620703 L 100.261018 114.290027 L 95.672883 114.166023 L 91.043413 114.290027 L 86.455279 114.620703 L 81.867144 115.116718 L 77.279009 115.86074 L 72.649539 116.811435 L 68.061404 117.927467 L 63.47327 119.208838 L 58.8438 120.655548 L 54.255665 122.267595 L 49.626196 123.962311 L 45.038061 125.822366 L 40.408591 127.723755 L 35.779122 129.707814 L 31.190987 131.774541 L 26.561518 133.841269 L 17.302579 138.057393 L 12.714444 140.12412 L 8.04364 142.190847 C 6.803603 131.609203 6.968941 120.86222 8.49832 110.32191 L 12.425102 109.701892 L 17.013237 108.875201 L 21.642706 108.007176 L 26.230841 107.015147 L 30.860311 105.940448 L 35.448446 104.783081 L 40.077915 103.50171 L 44.66605 102.13767 L 49.295519 100.690961 L 53.924989 99.161582 L 58.513124 97.5082 L 63.142593 95.772149 L 67.730728 93.994764 L 72.360197 92.093374 L 76.989667 90.150651 L 81.577802 88.125258 L 86.207271 86.099865 L 90.836741 83.991803 L 100.054345 79.817013 L 104.683815 77.708952 L 113.942753 73.658166 L 118.572223 71.756776 L 123.201692 69.896722 L 127.831162 68.202005 L 132.460631 66.589958 L 137.090101 65.143249 L 141.71957 63.820543 L 146.34904 62.70451 L 151.019844 61.753816 L 155.649313 61.009794 L 160.278783 60.472445 L 164.949587 60.141768 Z M 169.579056 60.059099 " transform="matrix(0.0945033,0,0,0.0945033,0.403912,0)"/>
<path style=" stroke:none;fill-rule:nonzero;fill:rgb(36.078431%,49.019608%,63.529412%);fill-opacity:1;" d="M 9.445312 10.960938 L 9.878906 10.972656 L 10.316406 11 L 10.753906 11.050781 L 11.191406 11.121094 L 11.625 11.210938 L 12.0625 11.316406 L 12.5 11.4375 L 12.9375 11.578125 L 13.375 11.726562 L 13.808594 11.890625 L 14.246094 12.0625 L 14.683594 12.246094 L 15.121094 12.433594 L 15.554688 12.628906 L 15.992188 12.824219 L 16.867188 13.222656 L 17.300781 13.417969 L 17.738281 13.613281 L 18.175781 13.800781 L 18.613281 13.984375 L 19.050781 14.164062 L 19.484375 14.335938 L 19.921875 14.5 L 20.359375 14.65625 L 20.796875 14.800781 L 21.230469 14.9375 L 21.667969 15.066406 L 22.105469 15.1875 L 22.542969 15.296875 L 22.980469 15.398438 L 23.351562 15.476562 C 22.347656 18.699219 19.964844 21.308594 16.851562 22.597656 C 11.050781 25 4.402344 22.246094 2 16.445312 C 1.617188 15.527344 1.359375 14.5625 1.230469 13.574219 L 1.585938 13.417969 L 2.019531 13.222656 L 2.894531 12.824219 L 3.769531 12.433594 L 4.203125 12.246094 L 4.640625 12.0625 L 5.078125 11.890625 L 5.515625 11.726562 L 5.949219 11.578125 L 6.386719 11.4375 L 6.824219 11.316406 L 7.261719 11.210938 L 7.699219 11.121094 L 8.132812 11.050781 L 8.570312 11 L 9.007812 10.972656 Z M 9.445312 10.960938 "/>
<path style=" stroke:none;fill-rule:nonzero;fill:rgb(26.666667%,28.235294%,46.27451%);fill-opacity:1;" d="M 10.316406 13.902344 L 10.316406 15.367188 L 12.9375 15.367188 L 12.9375 17.390625 L 15.554688 17.390625 L 15.554688 18.773438 L 18.175781 18.773438 L 18.175781 19.355469 L 20.796875 19.355469 L 20.796875 19.867188 C 17.558594 23.320312 12.523438 24.410156 8.148438 22.597656 C 5.707031 21.585938 3.695312 19.757812 2.457031 17.421875 L 2.457031 16.058594 L 5.078125 16.058594 L 5.078125 14.234375 L 7.699219 14.234375 L 7.699219 13.902344 Z M 10.316406 13.902344 "/>
<path style=" stroke:none;fill-rule:nonzero;fill:rgb(100%,100%,100%);fill-opacity:1;" d="M 10.40625 13.816406 L 10.40625 15.277344 L 13.027344 15.277344 L 13.027344 17.300781 L 15.644531 17.300781 L 15.644531 18.683594 L 18.265625 18.683594 L 18.265625 19.269531 L 20.886719 19.269531 L 20.886719 19.769531 C 20.824219 19.835938 20.765625 19.898438 20.707031 19.960938 L 20.707031 19.445312 L 18.265625 19.445312 L 18.265625 21.890625 C 18.207031 21.925781 18.144531 21.960938 18.085938 21.996094 L 18.085938 18.863281 L 15.644531 18.863281 L 15.644531 23.019531 C 15.585938 23.035156 15.527344 23.054688 15.464844 23.070312 L 15.464844 17.480469 L 13.027344 17.480469 L 13.027344 23.449219 C 12.964844 23.453125 12.90625 23.457031 12.847656 23.457031 L 12.847656 15.457031 L 10.40625 15.457031 L 10.40625 23.269531 C 10.347656 23.257812 10.285156 23.246094 10.226562 23.234375 L 10.226562 13.992188 L 7.785156 13.992188 L 7.785156 22.441406 C 7.726562 22.414062 7.667969 22.382812 7.609375 22.355469 L 7.609375 14.324219 L 5.167969 14.324219 L 5.167969 20.78125 C 5.105469 20.730469 5.046875 20.679688 4.988281 20.628906 L 4.988281 16.148438 L 2.546875 16.148438 L 2.546875 17.585938 C 2.484375 17.476562 2.425781 17.363281 2.367188 17.25 L 2.367188 15.96875 L 4.988281 15.96875 L 4.988281 14.144531 L 7.609375 14.144531 L 7.609375 13.816406 Z M 10.40625 13.816406 "/>
<path style=" stroke:none;fill-rule:nonzero;fill:rgb(26.666667%,28.235294%,46.27451%);fill-opacity:1;" d="M 12.5 0 C 19.121094 0 24.511719 5.324219 24.59375 11.941406 L 24.597656 12.097656 L 24.59375 12.25 C 24.511719 18.871094 19.121094 24.191406 12.5 24.191406 C 5.820312 24.191406 0.402344 18.777344 0.402344 12.097656 C 0.402344 5.414062 5.820312 0 12.5 0 Z M 12.5 0.398438 C 6.039062 0.398438 0.800781 5.636719 0.800781 12.097656 C 0.800781 18.558594 6.039062 23.792969 12.5 23.796875 C 18.902344 23.792969 24.117188 18.648438 24.199219 12.246094 L 24.199219 11.949219 C 24.117188 5.546875 18.902344 0.398438 12.5 0.398438 Z M 12.5 0.398438 "/>
</g>
</svg>
