<?xml version="1.0" encoding="UTF-8"?>
<svg xmlns="http://www.w3.org/2000/svg" xmlns:xlink="http://www.w3.org/1999/xlink" width="48px" height="48px" viewBox="0 0 48 48" version="1.1">
<g id="surface1">
<path style=" stroke:none;fill-rule:nonzero;fill:rgb(11.764706%,84.313725%,37.647059%);fill-opacity:1;" d="M 24 0 C 10.726562 0 0 10.753906 0 24 C 0 37.273438 10.753906 48 24 48 C 37.273438 48 48 37.246094 48 24 C 48 10.753906 37.246094 0 24 0 Z M 35.011719 34.636719 C 34.582031 35.355469 33.664062 35.554688 32.945312 35.125 C 27.296875 31.683594 20.214844 30.910156 11.839844 32.804688 C 11.039062 32.976562 10.234375 32.488281 10.0625 31.683594 C 9.890625 30.882812 10.378906 30.082031 11.179688 29.90625 C 20.328125 27.816406 28.183594 28.703125 34.492188 32.574219 C 34.835938 32.777344 35.082031 33.113281 35.179688 33.5 C 35.277344 33.886719 35.214844 34.296875 35.007812 34.640625 Z M 37.933594 28.101562 C 37.390625 28.988281 36.242188 29.246094 35.355469 28.730469 C 28.902344 24.773438 19.066406 23.625 11.441406 25.921875 C 10.4375 26.207031 9.40625 25.660156 9.117188 24.6875 C 8.832031 23.683594 9.375 22.652344 10.378906 22.363281 C 19.097656 19.726562 29.933594 20.988281 37.363281 25.546875 C 38.222656 26.0625 38.480469 27.210938 37.9375 28.097656 Z M 38.191406 21.273438 C 30.449219 16.6875 17.691406 16.257812 10.292969 18.496094 C 9.117188 18.867188 7.855469 18.179688 7.484375 17.003906 C 7.109375 15.828125 7.796875 14.566406 8.972656 14.191406 C 17.460938 11.613281 31.570312 12.128906 40.457031 17.40625 C 41.519531 18.035156 41.863281 19.410156 41.234375 20.472656 C 40.660156 21.5625 39.253906 21.90625 38.191406 21.273438 Z M 38.191406 21.273438 "/>
</g>
</svg>
